<svg width="694" height="535" viewBox="0 0 694 535" fill="none" xmlns="http://www.w3.org/2000/svg">
<path d="M0.996582 179.983C5.71615 173.904 4.91623 167.486 6.60916 160.196C7.43235 156.646 12.0358 154.186 11.0506 150.265C9.21827 142.982 9.28607 141.769 13.2228 134.674C19.1364 124.021 24.146 110.32 28.2298 101.28C32.3912 92.067 48.325 97.3233 56.7612 97.3233C61.6022 97.3233 87.0202 100.604 89.5191 96.194C90.3482 94.7388 92.5282 77.7685 91.8499 77.1343C88.9334 74.387 84.9677 75.6295 84.0631 70.5475C83.0197 64.7382 81.8081 61.5885 76.8044 58.3082C67.2148 52.0282 61.2485 41.7336 53.6067 33.1824C59.4049 33.1824 69.7484 36.125 73.2387 29.1362C76.8393 21.9403 72.4442 10.962 77.4017 4.69462C82.7122 -2.01762 106.507 2.46728 114.12 2.46728C128.736 2.46728 143.353 2.46728 157.969 2.46728C154.27 19.5501 153.899 37.2041 150.873 54.4059C147.777 72.0159 144.217 89.538 141.689 107.26C149.44 106.394 165.924 106.006 167.153 117.643C168.417 114.626 169.71 111.019 172.997 109.964C171.965 108.389 170.852 106.884 169.657 105.447C175.467 107.725 179.416 113.057 184.686 116.288C170.597 122.662 161.877 138.007 148.896 146.294C142.854 150.152 134.998 154.757 136.731 163.778C137.955 170.165 139.277 174.525 134.43 179.355C129.843 183.922 116.845 186.714 118.103 193.973C118.851 198.264 115.905 197.374 113.087 200.046C112.531 200.573 107.684 207.568 108.391 207.223C102.68 210.014 88.2725 210.987 91.1772 223.791C84.3705 220.585 78.2482 215.222 70.769 213.828C63.1445 212.411 55.0331 215.058 47.2408 214.055C27.9568 211.57 13.9028 193.948 0.996582 179.983Z" fill="#CBCCCD" stroke="white" stroke-miterlimit="3.97447"/>
<path d="M262.326 407.185C264.802 405.007 271.481 394.888 271.939 391.526C272.681 386.086 261.416 379.45 265.683 376.72C270.756 373.483 272.067 368.834 275.51 362.624C276.867 360.171 293.507 368.922 295.908 370.208C307.584 376.476 306.036 372.388 316.868 369.14C321.63 367.712 323.718 375.717 331.608 374.198C335.162 379.21 336.356 384.002 342.505 385.252C350.223 386.823 361.405 387.139 361.058 378.263C364.467 384.53 361.123 385.604 364.444 391.075C367.221 395.661 368.92 401.03 370.776 406.1C374.695 416.808 378.603 420.554 385.189 427.668C391.155 434.105 394.251 444.418 401.864 448.672C406.05 451.005 405.425 455.974 400.218 454.28C396.246 452.988 395.273 447.811 390.31 451.644C392.542 455.866 387.694 466.078 387.496 473.032C387.292 480.192 403.282 482.551 392.39 488.685C383.599 493.634 395.394 504.284 387.764 511.538C379.34 519.547 387.236 524.279 385.468 534.129C385.978 529.154 383.978 525.315 381.009 521.746C379.125 520.359 377.408 518.765 375.861 516.958C376.377 515.083 376.829 513.188 377.206 511.275C375.553 505.29 369.21 492.09 361.668 497.084C363.111 504.362 371.802 507.053 369.181 515.603C362.966 513.502 353.237 511.137 351.718 502.787C350.727 497.354 357.458 493.17 357.916 487.599C359.046 473.841 345.172 468.609 336.974 461.695C331.982 457.485 330.747 454.512 323.83 454.318C317.017 454.13 313.011 450.529 313.301 442.825C313.991 424.55 293.878 424.594 287.367 411.714C288.66 415.209 288.938 418.947 290.133 422.461C292.023 428.025 296.626 427.341 300.186 430.679C305.143 435.328 299.253 444.776 294.632 446.733C289.031 449.104 284.271 436.319 278.206 434.857C268.002 432.373 260.233 418.615 262.326 407.185Z" fill="#CBCCCD" stroke="white" stroke-miterlimit="3.97447"/>
<path d="M91.1709 223.798C89.9358 218.346 91.5539 215.911 94.7425 212.73C99.5548 207.925 103.825 209.87 107.972 207.006C108.539 206.613 112.235 199.336 116.96 197.068C118.76 196.204 117.239 193.04 117.72 190.612C118.775 185.236 127.06 187.304 130.318 188.283C135.757 189.914 165.118 209.782 162.137 217.028C168.121 216.967 181.462 205.052 183.427 217.028C188.593 213.346 197.586 215.73 195.174 223.459C194.658 225.121 190.425 247.323 188.854 240.516C184.54 246.809 193.202 251.909 181.34 255.422C170.092 258.747 161.917 246.834 152.119 249.551C163.007 252.781 146.477 251.244 143.712 249.864C136.922 246.483 131.217 240.504 123.976 238.158C117.198 235.956 109.33 239.073 102.854 235.548C99.0386 233.465 95.3975 226.589 91.1709 223.798Z" fill="#CBCCCD" stroke="white" stroke-miterlimit="3.97447"/>
<path d="M127.488 186.306C130.63 177.85 140.84 175.936 135.959 165.34C133.222 159.411 140.852 150.334 145.102 148.251C154.924 143.445 162.627 134.259 170.587 126.455C173.713 123.387 177.918 120.685 181.582 118.308C185.826 115.554 188.227 119.343 191.665 114.958C196.402 108.916 207.197 103.54 212.81 109.732C216.892 114.242 237.115 114.75 243.185 114.148C251.656 113.314 264.568 115.541 271.856 110.497C274.465 108.69 293.836 104.048 283.196 100.485C292.711 100.158 300.892 106.626 310.336 106.808C320.077 106.99 331.412 99.2738 340.126 107.624C347.536 114.725 351.762 107.693 359.178 111.777C367.811 116.538 372.293 127.542 378.798 134.813C375.789 133.157 372.954 128.038 369.261 128.038C365.66 128.038 362.512 128.715 359.596 125.779C362.39 127.479 362.529 130.943 363.242 133.86C363.77 136.005 369.266 140.535 370.866 142.492C372.009 138.872 370.484 136.47 367.115 135.723C371.168 130.986 377.563 144.575 385.483 140.24C385.999 143.207 386.898 144.349 385.066 147.015C393.484 144.719 385.796 138.609 381.726 137.078C395.264 139.142 392.719 151.532 403.433 156.043C395.809 157.454 388.718 155.993 381.975 161.099C376.085 165.566 364.014 169.826 356.847 169.618C351.16 169.462 345.947 176.049 341.065 174.462C337.61 173.339 334.369 171.958 331.215 170.045C329.754 169.154 329.62 165.974 328.171 165.654C320.228 163.91 319.416 174.832 316.604 179.531C314.789 182.561 311.589 184.004 309.925 187.21C309.014 188.96 311.132 192.026 309.571 193.251C303.785 197.793 285.575 208.897 282.791 219.28C270.149 210.552 267.629 202.919 259.477 217.774C253.814 228.095 236.591 218.603 237.492 227.636C238.386 236.598 242.02 247.034 232.262 248.803C227.125 249.731 227.948 255.735 226.586 259.731C224.22 266.664 215.262 264.161 210.149 264.901C213.929 258.251 195.103 249.054 208.479 243.665C204.351 245.146 198.808 245.076 198.043 239.148C196.825 244.16 193.027 245.585 189.276 242.31C194.233 240.56 193.341 234.957 193.601 230.553C194.03 223.414 200.043 215.428 188.412 215.327C184.597 218.59 182.539 217.981 182.226 213.508C181.043 211.908 179.512 211.287 177.634 211.632C172.219 212.297 167.638 216.958 162.142 217.015C166.27 206.971 131.703 190.949 127.488 186.306Z" fill="#CBCCCD" stroke="white" stroke-miterlimit="3.97447"/>
<path d="M198.038 260.837C203.297 263.227 203.459 269.224 210.144 268.522C211.075 266.83 208.173 265.098 210.873 264.645C213.62 264.27 221.134 263.82 223.671 262.995C229.173 261.213 225.694 253.039 229.59 250.077C232.501 247.869 237.052 249.595 237.76 245.096C238.658 239.407 233.997 227.869 237.279 223.346C240.311 219.161 247.28 222.53 251.078 223.07C255.884 223.741 257.82 219.155 260.54 215.667C270.732 202.606 272.095 211.903 282.781 219.281C284.551 208.316 298.235 200.948 306.685 193.283C312.44 192.819 306.363 188.419 312.965 182.43C317.947 177.911 317.825 170.566 323.177 166.206C329.241 161.262 331.547 169.508 336.498 172.452C343.681 176.723 347.025 172.094 353.811 169.553C361.179 166.794 374.028 165.969 380.881 161.922C383.994 160.084 386.482 156.934 390.065 156.044C394.529 154.94 398.942 156.872 403.423 156.044C399.62 158.008 397.538 166.746 392.57 161.922C387.873 170.761 399.956 185.384 395.909 196.703C391.996 207.662 383.879 213.93 380.556 225.874C376.423 240.748 378.098 255.623 375.825 270.648C374.724 277.944 377.623 297.217 369.61 298.333C369.865 289.795 374.341 283.559 372.949 274.394C367.633 275.83 372.781 286.289 362.931 289.752C369.616 299.08 364.711 308.81 365.018 319.111C363.476 316.282 363.058 313.271 363.766 310.077C362.803 316.256 359.15 321.752 359.174 328.151C369.935 323.973 361.464 339.55 359.331 343.352C354.252 352.405 350.599 362.982 357.104 373.032C360.003 377.505 365.471 381.614 356.664 385.41C351.509 387.631 342.662 387.26 338.221 383.446C336.887 382.204 335.757 380.773 334.828 379.149C331.078 373.17 332.359 375.316 327.309 374.369C323.43 373.641 321.018 368.578 316.78 369.532C313.348 370.297 310.222 371.549 307.248 373.305C305.377 374.408 300.514 372.629 298.044 371.442C285.391 365.36 279.681 362.471 277.952 362.292C277.087 362.201 273.741 361.916 279.272 360.898C282.798 361.508 320.278 382.901 310.478 354.795C308.472 352.417 299.519 334.747 297.535 332.574C295.629 330.488 284.082 322.009 282.932 318.631C281.7 315.008 272.277 312.662 270.397 313.014C262.622 314.467 267.66 338.351 266.131 335.668C267.985 337.737 272.33 357.357 279.227 360.913C278.299 360.829 279.453 362.908 277.572 362.251C272.564 360.5 273.808 378.872 266.93 362.743C263.067 353.687 254.951 347.442 248.55 340.792C235.865 327.612 230.577 309.62 216.998 296.853C208.278 288.653 189.492 272.499 198.038 260.837Z" fill="#CBCCCD" stroke="white" stroke-miterlimit="3.97"/>
<path d="M466.079 193.953C468.316 188.955 469.548 185.534 473.063 181.276C474.634 179.375 475.845 177.096 477.743 175.533C479.119 174.399 482.107 172.879 482.233 170.694C484.463 171.384 486.814 181.249 484.876 182.483C483.464 183.381 481.853 182.573 480.837 184.138C479.677 185.923 479.938 188.355 482.233 188.707C480.337 191.441 480.865 194.904 483.856 191.416C486.481 188.355 487.804 190.499 490.296 192.785C492.432 194.747 494.877 191.773 496.56 194.725C498.288 197.759 498.344 202.785 502.353 203.603C505.739 204.295 505.951 204.104 506.92 200.053C513.39 172.987 518.669 163.481 511.227 192.81C510.147 197.066 512.384 185.102 514.058 181.012C514.917 178.909 515.599 177.738 515.631 175.32C515.651 173.786 517.778 169.194 518.581 173.316C519.121 172.369 519.227 171.374 518.897 170.333C518.767 168.99 520.58 167.539 521.242 166.589C522.965 164.11 525.121 162.273 527.721 160.984C533.379 158.178 540.002 157.146 545.167 153.267C556.03 145.105 563.553 132.887 565.915 118.962C566.799 119.974 567.874 120.377 569.144 120.176C567.544 116.146 569.218 112.58 566.995 109.14C566.12 107.785 561.769 103.666 562.038 101.993C563.872 102.331 566.01 103.008 567.746 101.893C569.467 100.791 568.922 100.432 570.862 101.212C574.21 102.554 576.687 103.991 578.998 107.004C582.002 110.924 583.7 112.371 585.138 117.384C585.739 119.474 584.993 121.183 587.655 121.434C590.238 121.676 589.562 122.793 591.348 124.519C594.812 127.871 597.363 126.087 598.57 131.809C599.506 136.242 599.331 137.307 603.699 138.723C608.406 140.247 603.962 146.19 606.365 149.152C607.668 150.756 609.701 151.303 611.603 151.218C612.79 151.045 613.984 150.931 615.182 150.873C616.77 150.881 618.626 151.888 620.034 151.834C623.272 151.703 627.106 149.179 628.511 146.122C629.994 142.896 634.09 149.064 635.863 149.212C638.535 149.436 642.821 144.907 644.723 146.415C646.242 147.619 647.422 149.79 648.884 150.875C650.289 151.919 653.592 151.635 654.455 152.628C657.986 156.682 658.04 158.144 655.281 162.873C653.071 166.66 648.777 173.139 648.164 177.545C647.431 182.815 653.042 178.688 655.148 180.679C656.849 182.284 658.105 184.488 659.378 186.481C659.99 187.44 660.687 187.888 660.38 188.683C660.178 190.383 658.801 190.962 657.843 189.049C657.41 189.632 656.977 190.215 656.542 190.797C654.025 187.098 648.445 184.689 645.27 189.028C641.651 193.975 633.772 192.669 628.571 194.16C625.848 194.941 624.531 198.213 621.832 199.124C618.996 200.083 619.918 201.313 618.029 203.154C613.501 207.569 610.365 206.302 610.297 213.871C610.273 216.496 610.421 218.695 609.001 220.98C607.648 223.152 606.033 225.33 606.571 228.114C607.13 231.003 609.432 235.111 606.448 237.339C603.937 239.211 601.563 240.167 599.506 242.777C598.005 244.68 597.224 246.843 597.704 249.351C597.962 250.565 598.353 251.733 598.873 252.847C597.619 253.437 596.316 254.177 595.371 255.277C591.727 259.52 602.479 263.203 598.066 266.123C600.316 267.714 601.873 270.617 602.349 273.442C602.627 275.096 603.679 275.671 604.783 276.635C606.165 277.839 606.035 279.674 606.948 281.175C608.552 283.804 611.644 285.042 612.77 288.086C614.114 291.715 611.536 293.932 609.694 296.541C613.681 298.799 619.541 296.77 623.501 299.617C626.072 301.464 628.446 306.266 627.463 309.65C632.818 310.379 639.684 311.634 644.447 308.106C647.453 305.88 651.373 297.833 655.42 297.779C654.947 299.884 653.435 299.991 654.624 302.166C655.884 304.475 653.775 306.778 653.91 309.415C654.256 316.27 654.473 323.301 655.24 330.115C657.32 328.142 658.727 332.176 660.894 331.948C663.883 331.632 665.977 329.087 669.05 329.115C671.98 329.141 674.102 328.779 674.955 331.911C676.251 336.674 679.359 340.6 681.589 344.943C683.835 349.315 686.072 353.694 688.382 358.028C690.393 361.798 692.174 364.171 688.878 366.84C685.971 369.194 685.628 373.441 686.686 376.829C687.6 379.754 686.93 383.665 687.083 388.939C687.15 391.213 689.708 394.104 689.8 396.464C689.808 396.609 687.932 402.208 687.781 402.356C685.816 404.278 684.648 407.763 683.735 410.446C682.066 415.347 686.534 415.763 686.545 419.572C686.553 422.277 684.907 423.393 684.441 426.014C681.818 424.07 675.942 417.452 674.819 422.38C674.045 425.778 675.494 424.613 675.829 428.868C676.011 429.354 673.209 426.068 674.335 427.1C674.306 427.821 670.59 431.405 677.223 433.946C677.46 430.542 681.285 436.029 683.069 435.48C684.091 435.166 683.557 436.716 683.356 439.299C685.397 439.938 689.022 441.021 689.354 439.628C689.626 439.682 691.252 439.91 691.711 440.287C690.399 448.095 691.306 446.358 692.289 447.237C691.563 448.858 692.599 448.488 691.565 449.94C689.788 452.435 688.189 456.231 686.051 458.53C685.12 459.532 683.83 460.062 683.094 461.284C681.744 463.524 684.545 462.478 684.907 464.354C685.372 466.76 686.265 466.675 685.473 467.752C672.609 485.229 681.157 470.141 680.622 471.36C679.419 474.102 682.554 477.621 680.857 480.767C679.397 483.476 676.312 484.435 673.586 484.435C670.526 484.435 668.17 481.962 666.095 479.845C663.647 477.352 660.968 476.184 658.321 474.154C653.623 470.554 653.975 464.005 648.344 461.504C641.678 458.543 637.187 451.497 630.131 449.619C626.828 448.74 623.436 446.271 620.566 444.338C617.131 442.028 613.416 441.253 609.916 439.212C606.49 437.209 603.582 434.15 600.147 432.033C596.284 429.654 592.436 427.321 588.535 425.008C585.239 423.053 583.253 418.572 580.66 415.686C577.223 411.86 572.379 409.85 569.976 405.101C568.621 402.421 566.896 399.202 564.518 397.588C562.438 396.175 565.2 390.776 561.556 391.456C561.599 390.773 561.758 390.126 562.041 389.514C562.584 389.863 563.122 390.22 563.656 390.582C565.092 382.819 561.989 378.793 558.393 372.433C555.126 366.655 552.907 360.545 548.328 355.848C546.955 354.437 545.553 353.694 545.928 351.764C546.358 349.543 545.156 347.05 544.175 345.2C543.213 343.382 542.048 341.432 540.556 340.061C539.183 338.796 536.839 338.196 535.966 336.356C535.858 335.393 535.939 334.436 536.206 333.492C535.935 331.397 534.708 328.998 533.826 327.144C532.136 323.587 529.83 320.436 527.957 316.999C526.191 313.76 525.199 309.881 523.949 306.392C521.033 298.245 516.33 291.972 514.217 284.095C511.329 273.343 502.891 266.798 499.062 256.178C494.68 244.03 485.621 235.373 474.636 230.362C473.669 229.92 470.046 228.979 469.922 227.529C469.752 225.509 469.359 222.14 472.04 222.499C476.81 223.14 474.999 218.261 473.456 215.719C471.277 212.134 469.11 210.636 468.996 206.176C469.438 205.603 469.868 205.02 470.288 204.428C470.207 203.748 468.302 201.87 467.878 201.35C465.648 198.631 467.012 197.029 466.079 193.953Z" fill="#CBCCCD" stroke="white" stroke-width="1.42308" stroke-miterlimit="3.97447"/>
</svg>
