<svg xmlns="http://www.w3.org/2000/svg" version="1.1" xmlns:xlink="http://www.w3.org/1999/xlink" xmlns:svgjs="http://svgjs.dev/svgjs" viewBox="0 0 800 800" width="800" height="800"><g stroke-width="0.75" stroke="hsla(353, 98%, 41%, 0.20)" fill="none"><rect width="53.333333333333336" height="80" x="0" y="0" opacity="0.15"></rect><circle r="4.342105263157895" cx="0" cy="0" fill="hsla(353, 98%, 41%, 0.20)" stroke="none"></circle><rect width="53.333333333333336" height="80" x="53.333333333333336" y="0" opacity="0.15"></rect><circle r="4.342105263157895" cx="53.333333333333336" cy="0" fill="hsla(353, 98%, 41%, 0.20)" stroke="none"></circle><rect width="53.333333333333336" height="80" x="106.66666666666667" y="0" opacity="0.15"></rect><circle r="4.342105263157895" cx="106.66666666666667" cy="0" fill="hsla(353, 98%, 41%, 0.20)" stroke="none"></circle><rect width="53.333333333333336" height="80" x="160" y="0" opacity="0.15"></rect><circle r="4.342105263157895" cx="160" cy="0" fill="hsla(353, 98%, 41%, 0.20)" stroke="none"></circle><rect width="53.333333333333336" height="80" x="213.33333333333334" y="0" opacity="0.15"></rect><circle r="4.342105263157895" cx="213.33333333333334" cy="0" fill="hsla(353, 98%, 41%, 0.20)" stroke="none"></circle><rect width="53.333333333333336" height="80" x="266.6666666666667" y="0" opacity="0.15"></rect><circle r="4.342105263157895" cx="266.6666666666667" cy="0" fill="hsla(353, 98%, 41%, 0.20)" stroke="none"></circle><rect width="53.333333333333336" height="80" x="320" y="0" opacity="0.15"></rect><circle r="4.342105263157895" cx="320" cy="0" fill="hsla(353, 98%, 41%, 0.20)" stroke="none"></circle><rect width="53.333333333333336" height="80" x="373.3333333333333" y="0" opacity="0.15"></rect><circle r="4.342105263157895" cx="373.3333333333333" cy="0" fill="hsla(353, 98%, 41%, 0.20)" stroke="none"></circle><rect width="53.333333333333336" height="80" x="426.66666666666663" y="0" opacity="0.15"></rect><circle r="4.342105263157895" cx="426.66666666666663" cy="0" fill="hsla(353, 98%, 41%, 0.20)" stroke="none"></circle><rect width="53.333333333333336" height="80" x="479.99999999999994" y="0" opacity="0.15"></rect><circle r="4.342105263157895" cx="479.99999999999994" cy="0" fill="hsla(353, 98%, 41%, 0.20)" stroke="none"></circle><rect width="53.333333333333336" height="80" x="533.3333333333333" y="0" opacity="0.15"></rect><circle r="4.342105263157895" cx="533.3333333333333" cy="0" fill="hsla(353, 98%, 41%, 0.20)" stroke="none"></circle><rect width="53.333333333333336" height="80" x="586.6666666666666" y="0" opacity="0.15"></rect><circle r="4.342105263157895" cx="586.6666666666666" cy="0" fill="hsla(353, 98%, 41%, 0.20)" stroke="none"></circle><rect width="53.333333333333336" height="80" x="640" y="0" opacity="0.15"></rect><circle r="4.342105263157895" cx="640" cy="0" fill="hsla(353, 98%, 41%, 0.20)" stroke="none"></circle><rect width="53.333333333333336" height="80" x="693.3333333333334" y="0" opacity="0.15"></rect><circle r="4.342105263157895" cx="693.3333333333334" cy="0" fill="hsla(353, 98%, 41%, 0.20)" stroke="none"></circle><rect width="53.333333333333336" height="80" x="746.6666666666667" y="0" opacity="0.15"></rect><circle r="4.342105263157895" cx="746.6666666666667" cy="0" fill="hsla(353, 98%, 41%, 0.20)" stroke="none"></circle><rect width="53.333333333333336" height="80" x="800.0000000000001" y="0" opacity="0.15"></rect><circle r="4.342105263157895" cx="800.0000000000001" cy="0" fill="hsla(353, 98%, 41%, 0.20)" stroke="none"></circle><rect width="53.333333333333336" height="80" x="0" y="80" opacity="0.15"></rect><circle r="4.342105263157895" cx="0" cy="80" fill="hsla(353, 98%, 41%, 0.20)" stroke="none"></circle><rect width="53.333333333333336" height="80" x="53.333333333333336" y="80" opacity="0.15"></rect><circle r="4.342105263157895" cx="53.333333333333336" cy="80" fill="hsla(353, 98%, 41%, 0.20)" stroke="none"></circle><rect width="53.333333333333336" height="80" x="106.66666666666667" y="80" opacity="0.15"></rect><circle r="4.342105263157895" cx="106.66666666666667" cy="80" fill="hsla(353, 98%, 41%, 0.20)" stroke="none"></circle><rect width="53.333333333333336" height="80" x="160" y="80" opacity="0.15"></rect><circle r="4.342105263157895" cx="160" cy="80" fill="hsla(353, 98%, 41%, 0.20)" stroke="none"></circle><rect width="53.333333333333336" height="80" x="213.33333333333334" y="80" opacity="0.15"></rect><circle r="4.342105263157895" cx="213.33333333333334" cy="80" fill="hsla(353, 98%, 41%, 0.20)" stroke="none"></circle><rect width="53.333333333333336" height="80" x="266.6666666666667" y="80" opacity="0.15"></rect><circle r="4.342105263157895" cx="266.6666666666667" cy="80" fill="hsla(353, 98%, 41%, 0.20)" stroke="none"></circle><rect width="53.333333333333336" height="80" x="320" y="80" opacity="0.15"></rect><circle r="4.342105263157895" cx="320" cy="80" fill="hsla(353, 98%, 41%, 0.20)" stroke="none"></circle><rect width="53.333333333333336" height="80" x="373.3333333333333" y="80" opacity="0.15"></rect><circle r="4.342105263157895" cx="373.3333333333333" cy="80" fill="hsla(353, 98%, 41%, 0.20)" stroke="none"></circle><rect width="53.333333333333336" height="80" x="426.66666666666663" y="80" opacity="0.15"></rect><circle r="4.342105263157895" cx="426.66666666666663" cy="80" fill="hsla(353, 98%, 41%, 0.20)" stroke="none"></circle><rect width="53.333333333333336" height="80" x="479.99999999999994" y="80" opacity="0.15"></rect><circle r="4.342105263157895" cx="479.99999999999994" cy="80" fill="hsla(353, 98%, 41%, 0.20)" stroke="none"></circle><rect width="53.333333333333336" height="80" x="533.3333333333333" y="80" opacity="0.15"></rect><circle r="4.342105263157895" cx="533.3333333333333" cy="80" fill="hsla(353, 98%, 41%, 0.20)" stroke="none"></circle><rect width="53.333333333333336" height="80" x="586.6666666666666" y="80" opacity="0.15"></rect><circle r="4.342105263157895" cx="586.6666666666666" cy="80" fill="hsla(353, 98%, 41%, 0.20)" stroke="none"></circle><rect width="53.333333333333336" height="80" x="640" y="80" opacity="0.15"></rect><circle r="4.342105263157895" cx="640" cy="80" fill="hsla(353, 98%, 41%, 0.20)" stroke="none"></circle><rect width="53.333333333333336" height="80" x="693.3333333333334" y="80" opacity="0.15"></rect><circle r="4.342105263157895" cx="693.3333333333334" cy="80" fill="hsla(353, 98%, 41%, 0.20)" stroke="none"></circle><rect width="53.333333333333336" height="80" x="746.6666666666667" y="80" opacity="0.15"></rect><circle r="4.342105263157895" cx="746.6666666666667" cy="80" fill="hsla(353, 98%, 41%, 0.20)" stroke="none"></circle><rect width="53.333333333333336" height="80" x="800.0000000000001" y="80" opacity="0.15"></rect><circle r="4.342105263157895" cx="800.0000000000001" cy="80" fill="hsla(353, 98%, 41%, 0.20)" stroke="none"></circle><rect width="53.333333333333336" height="80" x="0" y="160" opacity="0.15"></rect><circle r="4.342105263157895" cx="0" cy="160" fill="hsla(353, 98%, 41%, 0.20)" stroke="none"></circle><rect width="53.333333333333336" height="80" x="53.333333333333336" y="160" opacity="0.15"></rect><circle r="4.342105263157895" cx="53.333333333333336" cy="160" fill="hsla(353, 98%, 41%, 0.20)" stroke="none"></circle><rect width="53.333333333333336" height="80" x="106.66666666666667" y="160" opacity="0.15"></rect><circle r="4.342105263157895" cx="106.66666666666667" cy="160" fill="hsla(353, 98%, 41%, 0.20)" stroke="none"></circle><rect width="53.333333333333336" height="80" x="160" y="160" opacity="0.15"></rect><circle r="4.342105263157895" cx="160" cy="160" fill="hsla(353, 98%, 41%, 0.20)" stroke="none"></circle><rect width="53.333333333333336" height="80" x="213.33333333333334" y="160" opacity="0.15"></rect><circle r="4.342105263157895" cx="213.33333333333334" cy="160" fill="hsla(353, 98%, 41%, 0.20)" stroke="none"></circle><rect width="53.333333333333336" height="80" x="266.6666666666667" y="160" opacity="0.15"></rect><circle r="4.342105263157895" cx="266.6666666666667" cy="160" fill="hsla(353, 98%, 41%, 0.20)" stroke="none"></circle><rect width="53.333333333333336" height="80" x="320" y="160" opacity="0.15"></rect><circle r="4.342105263157895" cx="320" cy="160" fill="hsla(353, 98%, 41%, 0.20)" stroke="none"></circle><rect width="53.333333333333336" height="80" x="373.3333333333333" y="160" opacity="0.15"></rect><circle r="4.342105263157895" cx="373.3333333333333" cy="160" fill="hsla(353, 98%, 41%, 0.20)" stroke="none"></circle><rect width="53.333333333333336" height="80" x="426.66666666666663" y="160" opacity="0.15"></rect><circle r="4.342105263157895" cx="426.66666666666663" cy="160" fill="hsla(353, 98%, 41%, 0.20)" stroke="none"></circle><rect width="53.333333333333336" height="80" x="479.99999999999994" y="160" opacity="0.15"></rect><circle r="4.342105263157895" cx="479.99999999999994" cy="160" fill="hsla(353, 98%, 41%, 0.20)" stroke="none"></circle><rect width="53.333333333333336" height="80" x="533.3333333333333" y="160" opacity="0.15"></rect><circle r="4.342105263157895" cx="533.3333333333333" cy="160" fill="hsla(353, 98%, 41%, 0.20)" stroke="none"></circle><rect width="53.333333333333336" height="80" x="586.6666666666666" y="160" opacity="0.15"></rect><circle r="4.342105263157895" cx="586.6666666666666" cy="160" fill="hsla(353, 98%, 41%, 0.20)" stroke="none"></circle><rect width="53.333333333333336" height="80" x="640" y="160" opacity="0.15"></rect><circle r="4.342105263157895" cx="640" cy="160" fill="hsla(353, 98%, 41%, 0.20)" stroke="none"></circle><rect width="53.333333333333336" height="80" x="693.3333333333334" y="160" opacity="0.15"></rect><circle r="4.342105263157895" cx="693.3333333333334" cy="160" fill="hsla(353, 98%, 41%, 0.20)" stroke="none"></circle><rect width="53.333333333333336" height="80" x="746.6666666666667" y="160" opacity="0.15"></rect><circle r="4.342105263157895" cx="746.6666666666667" cy="160" fill="hsla(353, 98%, 41%, 0.20)" stroke="none"></circle><rect width="53.333333333333336" height="80" x="800.0000000000001" y="160" opacity="0.15"></rect><circle r="4.342105263157895" cx="800.0000000000001" cy="160" fill="hsla(353, 98%, 41%, 0.20)" stroke="none"></circle><rect width="53.333333333333336" height="80" x="0" y="240" opacity="0.15"></rect><circle r="4.342105263157895" cx="0" cy="240" fill="hsla(353, 98%, 41%, 0.20)" stroke="none"></circle><rect width="53.333333333333336" height="80" x="53.333333333333336" y="240" opacity="0.15"></rect><circle r="4.342105263157895" cx="53.333333333333336" cy="240" fill="hsla(353, 98%, 41%, 0.20)" stroke="none"></circle><rect width="53.333333333333336" height="80" x="106.66666666666667" y="240" opacity="0.15"></rect><circle r="4.342105263157895" cx="106.66666666666667" cy="240" fill="hsla(353, 98%, 41%, 0.20)" stroke="none"></circle><rect width="53.333333333333336" height="80" x="160" y="240" opacity="0.15"></rect><circle r="4.342105263157895" cx="160" cy="240" fill="hsla(353, 98%, 41%, 0.20)" stroke="none"></circle><rect width="53.333333333333336" height="80" x="213.33333333333334" y="240" opacity="0.15"></rect><circle r="4.342105263157895" cx="213.33333333333334" cy="240" fill="hsla(353, 98%, 41%, 0.20)" stroke="none"></circle><rect width="53.333333333333336" height="80" x="266.6666666666667" y="240" opacity="0.15"></rect><circle r="4.342105263157895" cx="266.6666666666667" cy="240" fill="hsla(353, 98%, 41%, 0.20)" stroke="none"></circle><rect width="53.333333333333336" height="80" x="320" y="240" opacity="0.15"></rect><circle r="4.342105263157895" cx="320" cy="240" fill="hsla(353, 98%, 41%, 0.20)" stroke="none"></circle><rect width="53.333333333333336" height="80" x="373.3333333333333" y="240" opacity="0.15"></rect><circle r="4.342105263157895" cx="373.3333333333333" cy="240" fill="hsla(353, 98%, 41%, 0.20)" stroke="none"></circle><rect width="53.333333333333336" height="80" x="426.66666666666663" y="240" opacity="0.15"></rect><circle r="4.342105263157895" cx="426.66666666666663" cy="240" fill="hsla(353, 98%, 41%, 0.20)" stroke="none"></circle><rect width="53.333333333333336" height="80" x="479.99999999999994" y="240" opacity="0.15"></rect><circle r="4.342105263157895" cx="479.99999999999994" cy="240" fill="hsla(353, 98%, 41%, 0.20)" stroke="none"></circle><rect width="53.333333333333336" height="80" x="533.3333333333333" y="240" opacity="0.15"></rect><circle r="4.342105263157895" cx="533.3333333333333" cy="240" fill="hsla(353, 98%, 41%, 0.20)" stroke="none"></circle><rect width="53.333333333333336" height="80" x="586.6666666666666" y="240" opacity="0.15"></rect><circle r="4.342105263157895" cx="586.6666666666666" cy="240" fill="hsla(353, 98%, 41%, 0.20)" stroke="none"></circle><rect width="53.333333333333336" height="80" x="640" y="240" opacity="0.15"></rect><circle r="4.342105263157895" cx="640" cy="240" fill="hsla(353, 98%, 41%, 0.20)" stroke="none"></circle><rect width="53.333333333333336" height="80" x="693.3333333333334" y="240" opacity="0.15"></rect><circle r="4.342105263157895" cx="693.3333333333334" cy="240" fill="hsla(353, 98%, 41%, 0.20)" stroke="none"></circle><rect width="53.333333333333336" height="80" x="746.6666666666667" y="240" opacity="0.15"></rect><circle r="4.342105263157895" cx="746.6666666666667" cy="240" fill="hsla(353, 98%, 41%, 0.20)" stroke="none"></circle><rect width="53.333333333333336" height="80" x="800.0000000000001" y="240" opacity="0.15"></rect><circle r="4.342105263157895" cx="800.0000000000001" cy="240" fill="hsla(353, 98%, 41%, 0.20)" stroke="none"></circle><rect width="53.333333333333336" height="80" x="0" y="320" opacity="0.15"></rect><circle r="4.342105263157895" cx="0" cy="320" fill="hsla(353, 98%, 41%, 0.20)" stroke="none"></circle><rect width="53.333333333333336" height="80" x="53.333333333333336" y="320" opacity="0.15"></rect><circle r="4.342105263157895" cx="53.333333333333336" cy="320" fill="hsla(353, 98%, 41%, 0.20)" stroke="none"></circle><rect width="53.333333333333336" height="80" x="106.66666666666667" y="320" opacity="0.15"></rect><circle r="4.342105263157895" cx="106.66666666666667" cy="320" fill="hsla(353, 98%, 41%, 0.20)" stroke="none"></circle><rect width="53.333333333333336" height="80" x="160" y="320" opacity="0.15"></rect><circle r="4.342105263157895" cx="160" cy="320" fill="hsla(353, 98%, 41%, 0.20)" stroke="none"></circle><rect width="53.333333333333336" height="80" x="213.33333333333334" y="320" opacity="0.15"></rect><circle r="4.342105263157895" cx="213.33333333333334" cy="320" fill="hsla(353, 98%, 41%, 0.20)" stroke="none"></circle><rect width="53.333333333333336" height="80" x="266.6666666666667" y="320" opacity="0.15"></rect><circle r="4.342105263157895" cx="266.6666666666667" cy="320" fill="hsla(353, 98%, 41%, 0.20)" stroke="none"></circle><rect width="53.333333333333336" height="80" x="320" y="320" opacity="0.15"></rect><circle r="4.342105263157895" cx="320" cy="320" fill="hsla(353, 98%, 41%, 0.20)" stroke="none"></circle><rect width="53.333333333333336" height="80" x="373.3333333333333" y="320" opacity="0.15"></rect><circle r="4.342105263157895" cx="373.3333333333333" cy="320" fill="hsla(353, 98%, 41%, 0.20)" stroke="none"></circle><rect width="53.333333333333336" height="80" x="426.66666666666663" y="320" opacity="0.15"></rect><circle r="4.342105263157895" cx="426.66666666666663" cy="320" fill="hsla(353, 98%, 41%, 0.20)" stroke="none"></circle><rect width="53.333333333333336" height="80" x="479.99999999999994" y="320" opacity="0.15"></rect><circle r="4.342105263157895" cx="479.99999999999994" cy="320" fill="hsla(353, 98%, 41%, 0.20)" stroke="none"></circle><rect width="53.333333333333336" height="80" x="533.3333333333333" y="320" opacity="0.15"></rect><circle r="4.342105263157895" cx="533.3333333333333" cy="320" fill="hsla(353, 98%, 41%, 0.20)" stroke="none"></circle><rect width="53.333333333333336" height="80" x="586.6666666666666" y="320" opacity="0.15"></rect><circle r="4.342105263157895" cx="586.6666666666666" cy="320" fill="hsla(353, 98%, 41%, 0.20)" stroke="none"></circle><rect width="53.333333333333336" height="80" x="640" y="320" opacity="0.15"></rect><circle r="4.342105263157895" cx="640" cy="320" fill="hsla(353, 98%, 41%, 0.20)" stroke="none"></circle><rect width="53.333333333333336" height="80" x="693.3333333333334" y="320" opacity="0.15"></rect><circle r="4.342105263157895" cx="693.3333333333334" cy="320" fill="hsla(353, 98%, 41%, 0.20)" stroke="none"></circle><rect width="53.333333333333336" height="80" x="746.6666666666667" y="320" opacity="0.15"></rect><circle r="4.342105263157895" cx="746.6666666666667" cy="320" fill="hsla(353, 98%, 41%, 0.20)" stroke="none"></circle><rect width="53.333333333333336" height="80" x="800.0000000000001" y="320" opacity="0.15"></rect><circle r="4.342105263157895" cx="800.0000000000001" cy="320" fill="hsla(353, 98%, 41%, 0.20)" stroke="none"></circle><rect width="53.333333333333336" height="80" x="0" y="400" opacity="0.15"></rect><circle r="4.342105263157895" cx="0" cy="400" fill="hsla(353, 98%, 41%, 0.20)" stroke="none"></circle><rect width="53.333333333333336" height="80" x="53.333333333333336" y="400" opacity="0.15"></rect><circle r="4.342105263157895" cx="53.333333333333336" cy="400" fill="hsla(353, 98%, 41%, 0.20)" stroke="none"></circle><rect width="53.333333333333336" height="80" x="106.66666666666667" y="400" opacity="0.15"></rect><circle r="4.342105263157895" cx="106.66666666666667" cy="400" fill="hsla(353, 98%, 41%, 0.20)" stroke="none"></circle><rect width="53.333333333333336" height="80" x="160" y="400" opacity="0.15"></rect><circle r="4.342105263157895" cx="160" cy="400" fill="hsla(353, 98%, 41%, 0.20)" stroke="none"></circle><rect width="53.333333333333336" height="80" x="213.33333333333334" y="400" opacity="0.15"></rect><circle r="4.342105263157895" cx="213.33333333333334" cy="400" fill="hsla(353, 98%, 41%, 0.20)" stroke="none"></circle><rect width="53.333333333333336" height="80" x="266.6666666666667" y="400" opacity="0.15"></rect><circle r="4.342105263157895" cx="266.6666666666667" cy="400" fill="hsla(353, 98%, 41%, 0.20)" stroke="none"></circle><rect width="53.333333333333336" height="80" x="320" y="400" opacity="0.15"></rect><circle r="4.342105263157895" cx="320" cy="400" fill="hsla(353, 98%, 41%, 0.20)" stroke="none"></circle><rect width="53.333333333333336" height="80" x="373.3333333333333" y="400" opacity="0.15"></rect><circle r="4.342105263157895" cx="373.3333333333333" cy="400" fill="hsla(353, 98%, 41%, 0.20)" stroke="none"></circle><rect width="53.333333333333336" height="80" x="426.66666666666663" y="400" opacity="0.15"></rect><circle r="4.342105263157895" cx="426.66666666666663" cy="400" fill="hsla(353, 98%, 41%, 0.20)" stroke="none"></circle><rect width="53.333333333333336" height="80" x="479.99999999999994" y="400" opacity="0.15"></rect><circle r="4.342105263157895" cx="479.99999999999994" cy="400" fill="hsla(353, 98%, 41%, 0.20)" stroke="none"></circle><rect width="53.333333333333336" height="80" x="533.3333333333333" y="400" opacity="0.15"></rect><circle r="4.342105263157895" cx="533.3333333333333" cy="400" fill="hsla(353, 98%, 41%, 0.20)" stroke="none"></circle><rect width="53.333333333333336" height="80" x="586.6666666666666" y="400" opacity="0.15"></rect><circle r="4.342105263157895" cx="586.6666666666666" cy="400" fill="hsla(353, 98%, 41%, 0.20)" stroke="none"></circle><rect width="53.333333333333336" height="80" x="640" y="400" opacity="0.15"></rect><circle r="4.342105263157895" cx="640" cy="400" fill="hsla(353, 98%, 41%, 0.20)" stroke="none"></circle><rect width="53.333333333333336" height="80" x="693.3333333333334" y="400" opacity="0.15"></rect><circle r="4.342105263157895" cx="693.3333333333334" cy="400" fill="hsla(353, 98%, 41%, 0.20)" stroke="none"></circle><rect width="53.333333333333336" height="80" x="746.6666666666667" y="400" opacity="0.15"></rect><circle r="4.342105263157895" cx="746.6666666666667" cy="400" fill="hsla(353, 98%, 41%, 0.20)" stroke="none"></circle><rect width="53.333333333333336" height="80" x="800.0000000000001" y="400" opacity="0.15"></rect><circle r="4.342105263157895" cx="800.0000000000001" cy="400" fill="hsla(353, 98%, 41%, 0.20)" stroke="none"></circle><rect width="53.333333333333336" height="80" x="0" y="480" opacity="0.15"></rect><circle r="4.342105263157895" cx="0" cy="480" fill="hsla(353, 98%, 41%, 0.20)" stroke="none"></circle><rect width="53.333333333333336" height="80" x="53.333333333333336" y="480" opacity="0.15"></rect><circle r="4.342105263157895" cx="53.333333333333336" cy="480" fill="hsla(353, 98%, 41%, 0.20)" stroke="none"></circle><rect width="53.333333333333336" height="80" x="106.66666666666667" y="480" opacity="0.15"></rect><circle r="4.342105263157895" cx="106.66666666666667" cy="480" fill="hsla(353, 98%, 41%, 0.20)" stroke="none"></circle><rect width="53.333333333333336" height="80" x="160" y="480" opacity="0.15"></rect><circle r="4.342105263157895" cx="160" cy="480" fill="hsla(353, 98%, 41%, 0.20)" stroke="none"></circle><rect width="53.333333333333336" height="80" x="213.33333333333334" y="480" opacity="0.15"></rect><circle r="4.342105263157895" cx="213.33333333333334" cy="480" fill="hsla(353, 98%, 41%, 0.20)" stroke="none"></circle><rect width="53.333333333333336" height="80" x="266.6666666666667" y="480" opacity="0.15"></rect><circle r="4.342105263157895" cx="266.6666666666667" cy="480" fill="hsla(353, 98%, 41%, 0.20)" stroke="none"></circle><rect width="53.333333333333336" height="80" x="320" y="480" opacity="0.15"></rect><circle r="4.342105263157895" cx="320" cy="480" fill="hsla(353, 98%, 41%, 0.20)" stroke="none"></circle><rect width="53.333333333333336" height="80" x="373.3333333333333" y="480" opacity="0.15"></rect><circle r="4.342105263157895" cx="373.3333333333333" cy="480" fill="hsla(353, 98%, 41%, 0.20)" stroke="none"></circle><rect width="53.333333333333336" height="80" x="426.66666666666663" y="480" opacity="0.15"></rect><circle r="4.342105263157895" cx="426.66666666666663" cy="480" fill="hsla(353, 98%, 41%, 0.20)" stroke="none"></circle><rect width="53.333333333333336" height="80" x="479.99999999999994" y="480" opacity="0.15"></rect><circle r="4.342105263157895" cx="479.99999999999994" cy="480" fill="hsla(353, 98%, 41%, 0.20)" stroke="none"></circle><rect width="53.333333333333336" height="80" x="533.3333333333333" y="480" opacity="0.15"></rect><circle r="4.342105263157895" cx="533.3333333333333" cy="480" fill="hsla(353, 98%, 41%, 0.20)" stroke="none"></circle><rect width="53.333333333333336" height="80" x="586.6666666666666" y="480" opacity="0.15"></rect><circle r="4.342105263157895" cx="586.6666666666666" cy="480" fill="hsla(353, 98%, 41%, 0.20)" stroke="none"></circle><rect width="53.333333333333336" height="80" x="640" y="480" opacity="0.15"></rect><circle r="4.342105263157895" cx="640" cy="480" fill="hsla(353, 98%, 41%, 0.20)" stroke="none"></circle><rect width="53.333333333333336" height="80" x="693.3333333333334" y="480" opacity="0.15"></rect><circle r="4.342105263157895" cx="693.3333333333334" cy="480" fill="hsla(353, 98%, 41%, 0.20)" stroke="none"></circle><rect width="53.333333333333336" height="80" x="746.6666666666667" y="480" opacity="0.15"></rect><circle r="4.342105263157895" cx="746.6666666666667" cy="480" fill="hsla(353, 98%, 41%, 0.20)" stroke="none"></circle><rect width="53.333333333333336" height="80" x="800.0000000000001" y="480" opacity="0.15"></rect><circle r="4.342105263157895" cx="800.0000000000001" cy="480" fill="hsla(353, 98%, 41%, 0.20)" stroke="none"></circle><rect width="53.333333333333336" height="80" x="0" y="560" opacity="0.15"></rect><circle r="4.342105263157895" cx="0" cy="560" fill="hsla(353, 98%, 41%, 0.20)" stroke="none"></circle><rect width="53.333333333333336" height="80" x="53.333333333333336" y="560" opacity="0.15"></rect><circle r="4.342105263157895" cx="53.333333333333336" cy="560" fill="hsla(353, 98%, 41%, 0.20)" stroke="none"></circle><rect width="53.333333333333336" height="80" x="106.66666666666667" y="560" opacity="0.15"></rect><circle r="4.342105263157895" cx="106.66666666666667" cy="560" fill="hsla(353, 98%, 41%, 0.20)" stroke="none"></circle><rect width="53.333333333333336" height="80" x="160" y="560" opacity="0.15"></rect><circle r="4.342105263157895" cx="160" cy="560" fill="hsla(353, 98%, 41%, 0.20)" stroke="none"></circle><rect width="53.333333333333336" height="80" x="213.33333333333334" y="560" opacity="0.15"></rect><circle r="4.342105263157895" cx="213.33333333333334" cy="560" fill="hsla(353, 98%, 41%, 0.20)" stroke="none"></circle><rect width="53.333333333333336" height="80" x="266.6666666666667" y="560" opacity="0.15"></rect><circle r="4.342105263157895" cx="266.6666666666667" cy="560" fill="hsla(353, 98%, 41%, 0.20)" stroke="none"></circle><rect width="53.333333333333336" height="80" x="320" y="560" opacity="0.15"></rect><circle r="4.342105263157895" cx="320" cy="560" fill="hsla(353, 98%, 41%, 0.20)" stroke="none"></circle><rect width="53.333333333333336" height="80" x="373.3333333333333" y="560" opacity="0.15"></rect><circle r="4.342105263157895" cx="373.3333333333333" cy="560" fill="hsla(353, 98%, 41%, 0.20)" stroke="none"></circle><rect width="53.333333333333336" height="80" x="426.66666666666663" y="560" opacity="0.15"></rect><circle r="4.342105263157895" cx="426.66666666666663" cy="560" fill="hsla(353, 98%, 41%, 0.20)" stroke="none"></circle><rect width="53.333333333333336" height="80" x="479.99999999999994" y="560" opacity="0.15"></rect><circle r="4.342105263157895" cx="479.99999999999994" cy="560" fill="hsla(353, 98%, 41%, 0.20)" stroke="none"></circle><rect width="53.333333333333336" height="80" x="533.3333333333333" y="560" opacity="0.15"></rect><circle r="4.342105263157895" cx="533.3333333333333" cy="560" fill="hsla(353, 98%, 41%, 0.20)" stroke="none"></circle><rect width="53.333333333333336" height="80" x="586.6666666666666" y="560" opacity="0.15"></rect><circle r="4.342105263157895" cx="586.6666666666666" cy="560" fill="hsla(353, 98%, 41%, 0.20)" stroke="none"></circle><rect width="53.333333333333336" height="80" x="640" y="560" opacity="0.15"></rect><circle r="4.342105263157895" cx="640" cy="560" fill="hsla(353, 98%, 41%, 0.20)" stroke="none"></circle><rect width="53.333333333333336" height="80" x="693.3333333333334" y="560" opacity="0.15"></rect><circle r="4.342105263157895" cx="693.3333333333334" cy="560" fill="hsla(353, 98%, 41%, 0.20)" stroke="none"></circle><rect width="53.333333333333336" height="80" x="746.6666666666667" y="560" opacity="0.15"></rect><circle r="4.342105263157895" cx="746.6666666666667" cy="560" fill="hsla(353, 98%, 41%, 0.20)" stroke="none"></circle><rect width="53.333333333333336" height="80" x="800.0000000000001" y="560" opacity="0.15"></rect><circle r="4.342105263157895" cx="800.0000000000001" cy="560" fill="hsla(353, 98%, 41%, 0.20)" stroke="none"></circle><rect width="53.333333333333336" height="80" x="0" y="640" opacity="0.15"></rect><circle r="4.342105263157895" cx="0" cy="640" fill="hsla(353, 98%, 41%, 0.20)" stroke="none"></circle><rect width="53.333333333333336" height="80" x="53.333333333333336" y="640" opacity="0.15"></rect><circle r="4.342105263157895" cx="53.333333333333336" cy="640" fill="hsla(353, 98%, 41%, 0.20)" stroke="none"></circle><rect width="53.333333333333336" height="80" x="106.66666666666667" y="640" opacity="0.15"></rect><circle r="4.342105263157895" cx="106.66666666666667" cy="640" fill="hsla(353, 98%, 41%, 0.20)" stroke="none"></circle><rect width="53.333333333333336" height="80" x="160" y="640" opacity="0.15"></rect><circle r="4.342105263157895" cx="160" cy="640" fill="hsla(353, 98%, 41%, 0.20)" stroke="none"></circle><rect width="53.333333333333336" height="80" x="213.33333333333334" y="640" opacity="0.15"></rect><circle r="4.342105263157895" cx="213.33333333333334" cy="640" fill="hsla(353, 98%, 41%, 0.20)" stroke="none"></circle><rect width="53.333333333333336" height="80" x="266.6666666666667" y="640" opacity="0.15"></rect><circle r="4.342105263157895" cx="266.6666666666667" cy="640" fill="hsla(353, 98%, 41%, 0.20)" stroke="none"></circle><rect width="53.333333333333336" height="80" x="320" y="640" opacity="0.15"></rect><circle r="4.342105263157895" cx="320" cy="640" fill="hsla(353, 98%, 41%, 0.20)" stroke="none"></circle><rect width="53.333333333333336" height="80" x="373.3333333333333" y="640" opacity="0.15"></rect><circle r="4.342105263157895" cx="373.3333333333333" cy="640" fill="hsla(353, 98%, 41%, 0.20)" stroke="none"></circle><rect width="53.333333333333336" height="80" x="426.66666666666663" y="640" opacity="0.15"></rect><circle r="4.342105263157895" cx="426.66666666666663" cy="640" fill="hsla(353, 98%, 41%, 0.20)" stroke="none"></circle><rect width="53.333333333333336" height="80" x="479.99999999999994" y="640" opacity="0.15"></rect><circle r="4.342105263157895" cx="479.99999999999994" cy="640" fill="hsla(353, 98%, 41%, 0.20)" stroke="none"></circle><rect width="53.333333333333336" height="80" x="533.3333333333333" y="640" opacity="0.15"></rect><circle r="4.342105263157895" cx="533.3333333333333" cy="640" fill="hsla(353, 98%, 41%, 0.20)" stroke="none"></circle><rect width="53.333333333333336" height="80" x="586.6666666666666" y="640" opacity="0.15"></rect><circle r="4.342105263157895" cx="586.6666666666666" cy="640" fill="hsla(353, 98%, 41%, 0.20)" stroke="none"></circle><rect width="53.333333333333336" height="80" x="640" y="640" opacity="0.15"></rect><circle r="4.342105263157895" cx="640" cy="640" fill="hsla(353, 98%, 41%, 0.20)" stroke="none"></circle><rect width="53.333333333333336" height="80" x="693.3333333333334" y="640" opacity="0.15"></rect><circle r="4.342105263157895" cx="693.3333333333334" cy="640" fill="hsla(353, 98%, 41%, 0.20)" stroke="none"></circle><rect width="53.333333333333336" height="80" x="746.6666666666667" y="640" opacity="0.15"></rect><circle r="4.342105263157895" cx="746.6666666666667" cy="640" fill="hsla(353, 98%, 41%, 0.20)" stroke="none"></circle><rect width="53.333333333333336" height="80" x="800.0000000000001" y="640" opacity="0.15"></rect><circle r="4.342105263157895" cx="800.0000000000001" cy="640" fill="hsla(353, 98%, 41%, 0.20)" stroke="none"></circle><rect width="53.333333333333336" height="80" x="0" y="720" opacity="0.15"></rect><circle r="4.342105263157895" cx="0" cy="720" fill="hsla(353, 98%, 41%, 0.20)" stroke="none"></circle><rect width="53.333333333333336" height="80" x="53.333333333333336" y="720" opacity="0.15"></rect><circle r="4.342105263157895" cx="53.333333333333336" cy="720" fill="hsla(353, 98%, 41%, 0.20)" stroke="none"></circle><rect width="53.333333333333336" height="80" x="106.66666666666667" y="720" opacity="0.15"></rect><circle r="4.342105263157895" cx="106.66666666666667" cy="720" fill="hsla(353, 98%, 41%, 0.20)" stroke="none"></circle><rect width="53.333333333333336" height="80" x="160" y="720" opacity="0.15"></rect><circle r="4.342105263157895" cx="160" cy="720" fill="hsla(353, 98%, 41%, 0.20)" stroke="none"></circle><rect width="53.333333333333336" height="80" x="213.33333333333334" y="720" opacity="0.15"></rect><circle r="4.342105263157895" cx="213.33333333333334" cy="720" fill="hsla(353, 98%, 41%, 0.20)" stroke="none"></circle><rect width="53.333333333333336" height="80" x="266.6666666666667" y="720" opacity="0.15"></rect><circle r="4.342105263157895" cx="266.6666666666667" cy="720" fill="hsla(353, 98%, 41%, 0.20)" stroke="none"></circle><rect width="53.333333333333336" height="80" x="320" y="720" opacity="0.15"></rect><circle r="4.342105263157895" cx="320" cy="720" fill="hsla(353, 98%, 41%, 0.20)" stroke="none"></circle><rect width="53.333333333333336" height="80" x="373.3333333333333" y="720" opacity="0.15"></rect><circle r="4.342105263157895" cx="373.3333333333333" cy="720" fill="hsla(353, 98%, 41%, 0.20)" stroke="none"></circle><rect width="53.333333333333336" height="80" x="426.66666666666663" y="720" opacity="0.15"></rect><circle r="4.342105263157895" cx="426.66666666666663" cy="720" fill="hsla(353, 98%, 41%, 0.20)" stroke="none"></circle><rect width="53.333333333333336" height="80" x="479.99999999999994" y="720" opacity="0.15"></rect><circle r="4.342105263157895" cx="479.99999999999994" cy="720" fill="hsla(353, 98%, 41%, 0.20)" stroke="none"></circle><rect width="53.333333333333336" height="80" x="533.3333333333333" y="720" opacity="0.15"></rect><circle r="4.342105263157895" cx="533.3333333333333" cy="720" fill="hsla(353, 98%, 41%, 0.20)" stroke="none"></circle><rect width="53.333333333333336" height="80" x="586.6666666666666" y="720" opacity="0.15"></rect><circle r="4.342105263157895" cx="586.6666666666666" cy="720" fill="hsla(353, 98%, 41%, 0.20)" stroke="none"></circle><rect width="53.333333333333336" height="80" x="640" y="720" opacity="0.15"></rect><circle r="4.342105263157895" cx="640" cy="720" fill="hsla(353, 98%, 41%, 0.20)" stroke="none"></circle><rect width="53.333333333333336" height="80" x="693.3333333333334" y="720" opacity="0.15"></rect><circle r="4.342105263157895" cx="693.3333333333334" cy="720" fill="hsla(353, 98%, 41%, 0.20)" stroke="none"></circle><rect width="53.333333333333336" height="80" x="746.6666666666667" y="720" opacity="0.15"></rect><circle r="4.342105263157895" cx="746.6666666666667" cy="720" fill="hsla(353, 98%, 41%, 0.20)" stroke="none"></circle><rect width="53.333333333333336" height="80" x="800.0000000000001" y="720" opacity="0.15"></rect><circle r="4.342105263157895" cx="800.0000000000001" cy="720" fill="hsla(353, 98%, 41%, 0.20)" stroke="none"></circle><rect width="53.333333333333336" height="80" x="0" y="800" opacity="0.15"></rect><circle r="4.342105263157895" cx="0" cy="800" fill="hsla(353, 98%, 41%, 0.20)" stroke="none"></circle><rect width="53.333333333333336" height="80" x="53.333333333333336" y="800" opacity="0.15"></rect><circle r="4.342105263157895" cx="53.333333333333336" cy="800" fill="hsla(353, 98%, 41%, 0.20)" stroke="none"></circle><rect width="53.333333333333336" height="80" x="106.66666666666667" y="800" opacity="0.15"></rect><circle r="4.342105263157895" cx="106.66666666666667" cy="800" fill="hsla(353, 98%, 41%, 0.20)" stroke="none"></circle><rect width="53.333333333333336" height="80" x="160" y="800" opacity="0.15"></rect><circle r="4.342105263157895" cx="160" cy="800" fill="hsla(353, 98%, 41%, 0.20)" stroke="none"></circle><rect width="53.333333333333336" height="80" x="213.33333333333334" y="800" opacity="0.15"></rect><circle r="4.342105263157895" cx="213.33333333333334" cy="800" fill="hsla(353, 98%, 41%, 0.20)" stroke="none"></circle><rect width="53.333333333333336" height="80" x="266.6666666666667" y="800" opacity="0.15"></rect><circle r="4.342105263157895" cx="266.6666666666667" cy="800" fill="hsla(353, 98%, 41%, 0.20)" stroke="none"></circle><rect width="53.333333333333336" height="80" x="320" y="800" opacity="0.15"></rect><circle r="4.342105263157895" cx="320" cy="800" fill="hsla(353, 98%, 41%, 0.20)" stroke="none"></circle><rect width="53.333333333333336" height="80" x="373.3333333333333" y="800" opacity="0.15"></rect><circle r="4.342105263157895" cx="373.3333333333333" cy="800" fill="hsla(353, 98%, 41%, 0.20)" stroke="none"></circle><rect width="53.333333333333336" height="80" x="426.66666666666663" y="800" opacity="0.15"></rect><circle r="4.342105263157895" cx="426.66666666666663" cy="800" fill="hsla(353, 98%, 41%, 0.20)" stroke="none"></circle><rect width="53.333333333333336" height="80" x="479.99999999999994" y="800" opacity="0.15"></rect><circle r="4.342105263157895" cx="479.99999999999994" cy="800" fill="hsla(353, 98%, 41%, 0.20)" stroke="none"></circle><rect width="53.333333333333336" height="80" x="533.3333333333333" y="800" opacity="0.15"></rect><circle r="4.342105263157895" cx="533.3333333333333" cy="800" fill="hsla(353, 98%, 41%, 0.20)" stroke="none"></circle><rect width="53.333333333333336" height="80" x="586.6666666666666" y="800" opacity="0.15"></rect><circle r="4.342105263157895" cx="586.6666666666666" cy="800" fill="hsla(353, 98%, 41%, 0.20)" stroke="none"></circle><rect width="53.333333333333336" height="80" x="640" y="800" opacity="0.15"></rect><circle r="4.342105263157895" cx="640" cy="800" fill="hsla(353, 98%, 41%, 0.20)" stroke="none"></circle><rect width="53.333333333333336" height="80" x="693.3333333333334" y="800" opacity="0.15"></rect><circle r="4.342105263157895" cx="693.3333333333334" cy="800" fill="hsla(353, 98%, 41%, 0.20)" stroke="none"></circle><rect width="53.333333333333336" height="80" x="746.6666666666667" y="800" opacity="0.15"></rect><circle r="4.342105263157895" cx="746.6666666666667" cy="800" fill="hsla(353, 98%, 41%, 0.20)" stroke="none"></circle><rect width="53.333333333333336" height="80" x="800.0000000000001" y="800" opacity="0.15"></rect><circle r="4.342105263157895" cx="800.0000000000001" cy="800" fill="hsla(353, 98%, 41%, 0.20)" stroke="none"></circle></g></svg>