<svg width="953" height="71" viewBox="0 0 953 71" fill="none" xmlns="http://www.w3.org/2000/svg">
<path d="M16.1953 53.1381C6.89305 53.1381 0.401537 47.7467 0 40.891H9.43612C9.77073 43.6865 12.3807 45.8164 16.1284 45.8164C19.8092 45.8164 21.8168 44.1524 21.8168 42.0225C21.8168 35.433 0.869997 39.6263 0.869997 26.1146C0.869997 19.9911 6.35767 15.0656 15.5261 15.0656C24.4938 15.0656 29.9145 19.9245 30.4499 27.2461H21.4822C21.2145 24.384 18.9392 22.4538 15.2584 22.4538C11.7784 22.4538 9.9715 23.8515 9.9715 25.9815C9.9715 32.7041 30.5168 28.5108 30.7845 42.0225C30.7845 48.3457 25.2299 53.1381 16.1953 53.1381Z" fill="black"/>
<path d="M54.9384 53.1381C44.2308 53.1381 36.1331 45.6833 36.1331 34.1018C36.1331 22.4538 44.4985 15.0656 55.2061 15.0656C65.9138 15.0656 74.2791 22.4538 74.2791 34.1018C74.2791 45.6833 65.713 53.1381 54.9384 53.1381ZM54.9384 45.0177C59.8907 45.0177 64.6422 41.4234 64.6422 34.1018C64.6422 26.7136 60.0246 23.1859 55.0723 23.1859C50.12 23.1859 45.6361 26.7136 45.6361 34.1018C45.6361 41.4234 49.9192 45.0177 54.9384 45.0177Z" fill="black"/>
<path d="M133.017 32.1716C133.017 26.3143 129.738 23.2525 124.785 23.2525C119.766 23.2525 116.487 26.3143 116.487 32.1716V52.539H107.118V32.1716C107.118 26.3143 103.839 23.2525 98.8863 23.2525C93.8002 23.2525 90.521 26.3143 90.521 32.1716V52.539H81.1518V15.6646H90.521V20.1242C92.8633 17.0624 96.8117 15.1321 101.429 15.1321C107.185 15.1321 111.936 17.5949 114.479 22.1875C116.889 17.9942 121.774 15.1321 127.195 15.1321C136.095 15.1321 142.386 20.7232 142.386 30.9069V52.539H133.017V32.1716Z" fill="black"/>
<path d="M167.74 53.1381C157.032 53.1381 148.935 45.6833 148.935 34.1018C148.935 22.4538 157.3 15.0656 168.008 15.0656C178.715 15.0656 187.081 22.4538 187.081 34.1018C187.081 45.6833 178.515 53.1381 167.74 53.1381ZM167.74 45.0177C172.692 45.0177 177.444 41.4234 177.444 34.1018C177.444 26.7136 172.826 23.1859 167.874 23.1859C162.922 23.1859 158.438 26.7136 158.438 34.1018C158.438 41.4234 162.721 45.0177 167.74 45.0177Z" fill="black"/>
<path d="M208.141 53.1381C198.839 53.1381 192.347 47.7467 191.946 40.891H201.382C201.716 43.6865 204.326 45.8164 208.074 45.8164C211.755 45.8164 213.763 44.1524 213.763 42.0225C213.763 35.433 192.816 39.6263 192.816 26.1146C192.816 19.9911 198.303 15.0656 207.472 15.0656C216.439 15.0656 221.86 19.9245 222.396 27.2461H213.428C213.16 24.384 210.885 22.4538 207.204 22.4538C203.724 22.4538 201.917 23.8515 201.917 25.9815C201.917 32.7041 222.462 28.5108 222.73 42.0225C222.73 48.3457 217.176 53.1381 208.141 53.1381Z" fill="black"/>
<path d="M247.84 6.54588H257.276V15.6646H265.574V23.3191H257.276V41.1572C257.276 43.6199 258.28 44.6849 261.224 44.6849H265.574V52.539H259.685C252.591 52.539 247.84 49.5438 247.84 41.0906V23.3191H243.423V15.6646H247.84V6.54588Z" fill="black"/>
<path d="M307.314 52.539H297.878V47.8798C295.535 51.0081 291.453 53.0049 286.835 53.0049C278.202 53.0049 271.979 47.4139 271.979 37.2967V15.6646H281.348V35.9655C281.348 41.8894 284.627 45.0843 289.579 45.0843C294.665 45.0843 297.878 41.8894 297.878 35.9655V15.6646H307.314V52.539Z" fill="black"/>
<path d="M330.095 33.9687C330.095 22.4538 337.591 15.0656 347.027 15.0656C352.983 15.0656 357.065 17.8611 359.274 20.9229V15.6646H368.71V52.539H359.274V47.1476C357.065 50.3425 352.849 53.1381 346.96 53.1381C337.591 53.1381 330.095 45.4836 330.095 33.9687ZM359.274 34.1018C359.274 27.113 354.589 23.2525 349.436 23.2525C344.417 23.2525 339.665 26.9799 339.665 33.9687C339.665 40.9575 344.417 44.9511 349.436 44.9511C354.589 44.9511 359.274 41.0906 359.274 34.1018Z" fill="black"/>
<path d="M377.86 3.28442H387.23V52.539H377.86V3.28442Z" fill="black"/>
<path d="M396.486 15.6646H405.856V52.539H396.486V15.6646ZM401.238 11.2717C397.892 11.2717 395.483 8.87548 395.483 5.81371C395.483 2.75194 397.892 0.355774 401.238 0.355774C404.517 0.355774 406.993 2.75194 406.993 5.81371C406.993 8.87548 404.517 11.2717 401.238 11.2717Z" fill="black"/>
<path d="M412.703 33.9687C412.703 22.4538 420.199 15.0656 429.635 15.0656C435.591 15.0656 439.673 17.8611 441.882 20.9229V15.6646H451.318V52.539H441.882V47.1476C439.673 50.3425 435.457 53.1381 429.568 53.1381C420.199 53.1381 412.703 45.4836 412.703 33.9687ZM441.882 34.1018C441.882 27.113 437.197 23.2525 432.044 23.2525C427.025 23.2525 422.273 26.9799 422.273 33.9687C422.273 40.9575 427.025 44.9511 432.044 44.9511C437.197 44.9511 441.882 41.0906 441.882 34.1018Z" fill="black"/>
<path d="M458.059 33.9687C458.059 22.4538 465.554 15.0656 475.057 15.0656C479.943 15.0656 484.627 17.3286 487.171 20.7898V3.28442H496.674V52.539H487.171V47.0811C484.962 50.4756 480.813 53.1381 474.991 53.1381C465.554 53.1381 458.059 45.4836 458.059 33.9687ZM487.237 34.1018C487.237 27.113 482.553 23.2525 477.4 23.2525C472.381 23.2525 467.629 26.9799 467.629 33.9687C467.629 40.9575 472.381 44.9511 477.4 44.9511C482.553 44.9511 487.237 41.0906 487.237 34.1018Z" fill="black"/>
<path d="M522.287 53.1381C511.58 53.1381 503.482 45.6833 503.482 34.1018C503.482 22.4538 511.847 15.0656 522.555 15.0656C533.263 15.0656 541.628 22.4538 541.628 34.1018C541.628 45.6833 533.062 53.1381 522.287 53.1381ZM522.287 45.0177C527.24 45.0177 531.991 41.4234 531.991 34.1018C531.991 26.7136 527.373 23.1859 522.421 23.1859C517.469 23.1859 512.985 26.7136 512.985 34.1018C512.985 41.4234 517.268 45.0177 522.287 45.0177Z" fill="black"/>
<path d="M580.375 22.72C575.891 22.72 572.344 25.5821 571.608 30.6407H589.208C589.075 25.7818 585.193 22.72 580.375 22.72ZM597.975 40.9575C595.968 47.7467 589.811 53.1381 580.642 53.1381C569.868 53.1381 562.038 45.6833 562.038 34.1018C562.038 22.4538 569.667 15.0656 580.642 15.0656C591.35 15.0656 598.912 22.3207 598.912 33.3031C598.912 34.5012 598.845 35.6993 598.645 36.8974H571.541C572.009 42.3553 575.757 45.4171 580.442 45.4171C584.457 45.4171 586.665 43.4203 587.87 40.9575H597.975Z" fill="black"/>
<path d="M631.717 32.1716C631.717 26.2477 628.438 23.0528 623.485 23.0528C618.399 23.0528 615.12 26.2477 615.12 32.1716V52.539H605.751V15.6646H615.12V20.2573C617.529 17.129 621.545 15.1321 626.296 15.1321C634.929 15.1321 641.086 20.7232 641.086 30.9069V52.539H631.717V32.1716Z" fill="black"/>
<path d="M681.87 22.72C677.386 22.72 673.839 25.5821 673.103 30.6407H690.704C690.57 25.7818 686.688 22.72 681.87 22.72ZM699.471 40.9575C697.463 47.7467 691.306 53.1381 682.138 53.1381C671.363 53.1381 663.533 45.6833 663.533 34.1018C663.533 22.4538 671.162 15.0656 682.138 15.0656C692.845 15.0656 700.408 22.3207 700.408 33.3031C700.408 34.5012 700.341 35.6993 700.14 36.8974H673.036C673.505 42.3553 677.252 45.4171 681.937 45.4171C685.952 45.4171 688.161 43.4203 689.365 40.9575H699.471Z" fill="black"/>
<path d="M707.246 3.28442H716.615V52.539H707.246V3.28442Z" fill="black"/>
<path d="M741.819 3.28442H751.188V20.2573C753.597 17.129 757.746 15.1321 762.699 15.1321C771.064 15.1321 777.154 20.7232 777.154 30.9069V52.539H767.785V32.1716C767.785 26.2477 764.505 23.0528 759.553 23.0528C754.467 23.0528 751.188 26.2477 751.188 32.1716V52.539H741.819V3.28442Z" fill="black"/>
<path d="M802.527 53.1381C791.819 53.1381 783.721 45.6833 783.721 34.1018C783.721 22.4538 792.087 15.0656 802.794 15.0656C813.502 15.0656 821.867 22.4538 821.867 34.1018C821.867 45.6833 813.301 53.1381 802.527 53.1381ZM802.527 45.0177C807.479 45.0177 812.23 41.4234 812.23 34.1018C812.23 26.7136 807.613 23.1859 802.66 23.1859C797.708 23.1859 793.224 26.7136 793.224 34.1018C793.224 41.4234 797.507 45.0177 802.527 45.0177Z" fill="black"/>
<path d="M843.262 15.0656C849.084 15.0656 853.301 17.728 855.509 20.9229V15.6646H864.945V52.8053C864.945 62.7893 858.788 70.71 846.608 70.71C836.168 70.71 828.874 65.5183 827.937 57.0651H837.239C838.176 60.3931 841.656 62.5896 846.341 62.5896C851.494 62.5896 855.509 59.661 855.509 52.8053V47.0811C853.301 50.276 849.084 53.1381 843.262 53.1381C833.826 53.1381 826.331 45.4836 826.331 33.9687C826.331 22.4538 833.826 15.0656 843.262 15.0656ZM855.509 34.1018C855.509 27.113 850.824 23.2525 845.671 23.2525C840.652 23.2525 835.901 26.9799 835.901 33.9687C835.901 40.9575 840.652 44.9511 845.671 44.9511C850.824 44.9511 855.509 41.0906 855.509 34.1018Z" fill="black"/>
<path d="M871.687 33.9687C871.687 22.4538 879.182 15.0656 888.618 15.0656C894.574 15.0656 898.657 17.8611 900.865 20.9229V15.6646H910.301V52.539H900.865V47.1476C898.657 50.3425 894.44 53.1381 888.551 53.1381C879.182 53.1381 871.687 45.4836 871.687 33.9687ZM900.865 34.1018C900.865 27.113 896.18 23.2525 891.027 23.2525C886.008 23.2525 881.257 26.9799 881.257 33.9687C881.257 40.9575 886.008 44.9511 891.027 44.9511C896.18 44.9511 900.865 41.0906 900.865 34.1018Z" fill="black"/>
<path d="M928.821 34.1684V52.539H919.452V15.6646H928.821V21.3888C931.163 17.5949 935.045 15.1321 940.198 15.1321V24.9165H937.722C932.167 24.9165 928.821 27.0464 928.821 34.1684Z" fill="black"/>
<path d="M948.985 52.9384C946.642 52.9384 944.835 51.1412 944.835 48.8116C944.835 46.482 946.642 44.6849 948.985 44.6849C951.193 44.6849 953 46.482 953 48.8116C953 51.1412 951.193 52.9384 948.985 52.9384Z" fill="black"/>
</svg>
