<svg width="931" height="70" viewBox="0 0 931 70" fill="none" xmlns="http://www.w3.org/2000/svg">
<path d="M16.1284 52.516C6.75921 52.516 0.133846 47.3243 0 39.6699H6.49152C6.89305 43.5304 9.63689 47.3909 16.1284 47.3909C22.0176 47.3909 25.4976 44.0629 25.4976 39.6699C25.4976 27.1566 0.267691 35.1438 0.267691 17.9047C0.267691 10.2503 6.49152 5.05858 15.7269 5.05858C24.6276 5.05858 30.4499 9.91748 31.186 16.9729H24.4938C24.0922 13.8445 21.1476 10.3168 15.4592 10.2503C10.44 10.1172 6.49152 12.713 6.49152 17.705C6.49152 29.6859 31.6545 22.2311 31.6545 39.4037C31.6545 45.9931 26.2338 52.516 16.1284 52.516Z" fill="black"/>
<path d="M56.611 52.6492C46.2379 52.6492 38.341 45.3275 38.341 33.746C38.341 22.2311 46.5056 14.9761 56.8787 14.9761C67.3186 14.9761 75.4163 22.2311 75.4163 33.746C75.4163 45.3275 67.0509 52.6492 56.611 52.6492ZM56.611 47.3243C62.9686 47.3243 69.1925 42.9979 69.1925 33.746C69.1925 24.5607 63.1025 20.2343 56.8117 20.2343C50.3871 20.2343 44.5649 24.5607 44.5649 33.746C44.5649 42.9979 50.2533 47.3243 56.611 47.3243Z" fill="black"/>
<path d="M136.359 31.4164C136.359 23.9617 132.344 20.1678 126.321 20.1678C120.164 20.1678 115.948 24.0948 115.948 31.9489V52.0501H109.925V31.4164C109.925 23.9617 105.91 20.1678 99.8865 20.1678C93.7296 20.1678 89.5135 24.0948 89.5135 31.9489V52.0501H83.4235V15.5751H89.5135V20.8334C91.9227 16.9729 96.2727 14.9095 101.091 14.9095C107.114 14.9095 112.133 17.5719 114.543 23.0298C116.684 17.7716 121.904 14.9095 127.526 14.9095C135.891 14.9095 142.383 20.1012 142.383 30.5512V52.0501H136.359V31.4164Z" fill="black"/>
<path d="M168.367 52.6492C157.994 52.6492 150.097 45.3275 150.097 33.746C150.097 22.2311 158.262 14.9761 168.635 14.9761C179.075 14.9761 187.172 22.2311 187.172 33.746C187.172 45.3275 178.807 52.6492 168.367 52.6492ZM168.367 47.3243C174.725 47.3243 180.948 42.9979 180.948 33.746C180.948 24.5607 174.858 20.2343 168.568 20.2343C162.143 20.2343 156.321 24.5607 156.321 33.746C156.321 42.9979 162.009 47.3243 168.367 47.3243Z" fill="black"/>
<path d="M208.162 52.6492C199.596 52.6492 193.573 47.9899 193.172 41.3339H199.462C199.797 44.8616 202.942 47.524 208.096 47.524C212.914 47.524 215.591 45.1279 215.591 42.1326C215.591 34.0123 193.908 38.7381 193.908 25.1598C193.908 19.5687 199.195 14.9761 207.359 14.9761C215.457 14.9761 220.811 19.3025 221.212 26.4244H215.122C214.855 22.7636 212.044 20.1012 207.159 20.1012C202.675 20.1012 199.998 22.2311 199.998 25.1598C199.998 33.8126 221.279 29.0868 221.547 42.1326C221.547 48.1231 216.26 52.6492 208.162 52.6492Z" fill="black"/>
<path d="M300.922 31.4164C300.922 23.9617 296.906 20.1678 290.883 20.1678C284.726 20.1678 280.51 24.0948 280.51 31.9489V52.0501H274.487V31.4164C274.487 23.9617 270.472 20.1678 264.449 20.1678C258.292 20.1678 254.076 24.0948 254.076 31.9489V52.0501H247.986V15.5751H254.076V20.8334C256.485 16.9729 260.835 14.9095 265.653 14.9095C271.676 14.9095 276.696 17.5719 279.105 23.0298C281.246 17.7716 286.466 14.9095 292.088 14.9095C300.453 14.9095 306.945 20.1012 306.945 30.5512V52.0501H300.922V31.4164Z" fill="black"/>
<path d="M314.659 33.6795C314.659 22.2977 322.221 14.9761 332.059 14.9761C338.885 14.9761 343.57 18.4372 345.711 22.2311V15.5751H351.868V52.0501H345.711V45.261C343.503 49.188 338.751 52.6492 331.992 52.6492C322.221 52.6492 314.659 44.9947 314.659 33.6795ZM345.711 33.746C345.711 25.2929 339.956 20.2343 333.264 20.2343C326.571 20.2343 320.883 25.0932 320.883 33.6795C320.883 42.2658 326.571 47.3243 333.264 47.3243C339.956 47.3243 345.711 42.3323 345.711 33.746ZM340.96 0V5.25826L326.705 12.8461V8.32003L340.96 0Z" fill="black"/>
<path d="M375.143 52.6492C366.577 52.6492 360.554 47.9899 360.152 41.3339H366.443C366.777 44.8616 369.923 47.524 375.076 47.524C379.894 47.524 382.571 45.1279 382.571 42.1326C382.571 34.0123 360.888 38.7381 360.888 25.1598C360.888 19.5687 366.175 14.9761 374.34 14.9761C382.437 14.9761 387.791 19.3025 388.193 26.4244H382.103C381.835 22.7636 379.024 20.1012 374.139 20.1012C369.655 20.1012 366.978 22.2311 366.978 25.1598C366.978 33.8126 388.26 29.0868 388.527 42.1326C388.527 48.1231 383.24 52.6492 375.143 52.6492Z" fill="black"/>
<path d="M412.691 33.6795C412.691 22.2977 420.253 14.9761 430.157 14.9761C436.85 14.9761 441.668 18.4372 443.743 22.2311V15.5751H449.9V69.3558H443.743V45.3275C441.668 49.0549 436.783 52.6492 429.957 52.6492C420.253 52.6492 412.691 44.9947 412.691 33.6795ZM443.743 33.746C443.743 25.2929 437.987 20.2343 431.295 20.2343C424.603 20.2343 418.914 25.0932 418.914 33.6795C418.914 42.2658 424.603 47.3243 431.295 47.3243C437.987 47.3243 443.743 42.3323 443.743 33.746Z" fill="black"/>
<path d="M492.716 52.0501H486.626V46.6587C484.283 50.4527 479.8 52.5826 474.914 52.5826C466.482 52.5826 459.857 47.3909 459.857 36.9409V15.5751H465.88V36.1422C465.88 43.5304 469.962 47.3243 476.119 47.3243C482.41 47.3243 486.626 43.4638 486.626 35.6097V15.5751H492.716V52.0501Z" fill="black"/>
<path d="M518.591 20.1012C512.635 20.1012 507.683 24.0283 507.014 31.1502H530.169C530.236 24.0283 524.882 20.1012 518.591 20.1012ZM535.724 40.8014C533.85 47.4575 527.961 52.6492 518.859 52.6492C508.419 52.6492 500.723 45.3275 500.723 33.746C500.723 22.2311 508.151 14.9761 518.859 14.9761C529.5 14.9761 536.46 22.4308 536.46 32.4148C536.46 33.7461 536.393 34.811 536.259 36.0757H506.947C507.415 43.4638 512.635 47.524 518.859 47.524C524.347 47.524 527.827 44.7285 529.165 40.8014H535.724Z" fill="black"/>
<path d="M594.865 52.0501H588.775V46.6587C586.432 50.4527 581.948 52.5826 577.063 52.5826C568.631 52.5826 562.005 47.3909 562.005 36.9409V15.5751H568.028V36.1422C568.028 43.5304 572.111 47.3243 578.268 47.3243C584.558 47.3243 588.775 43.4638 588.775 35.6097V15.5751H594.865V52.0501Z" fill="black"/>
<path d="M631.983 31.4164C631.983 23.9617 627.901 20.1678 621.744 20.1678C615.52 20.1678 611.237 24.0283 611.237 31.8824V52.0501H605.147V15.5751H611.237V20.7668C613.646 16.9729 618.063 14.9095 623.016 14.9095C631.515 14.9095 638.006 20.1012 638.006 30.5512V52.0501H631.983V31.4164Z" fill="black"/>
<path d="M645.679 33.6795C645.679 22.2977 653.241 14.9761 663.079 14.9761C669.905 14.9761 674.589 18.4372 676.731 22.2311V15.5751H682.888V52.0501H676.731V45.261C674.523 49.188 669.771 52.6492 663.012 52.6492C653.241 52.6492 645.679 44.9947 645.679 33.6795ZM676.731 33.746C676.731 25.2929 670.976 20.2343 664.283 20.2343C657.591 20.2343 651.903 25.0932 651.903 33.6795C651.903 42.2658 657.591 47.3243 664.283 47.3243C670.976 47.3243 676.731 42.3323 676.731 33.746Z" fill="black"/>
<path d="M712.36 6.38978H718.45V15.5751H728.019V20.5671H718.45V42.0661C718.45 45.6603 719.788 46.925 723.536 46.925H728.019V52.0501H722.532C716.04 52.0501 712.36 49.3877 712.36 42.0661V20.5671H707.608V15.5751H712.36V6.38978Z" fill="black"/>
<path d="M735.398 15.5751H741.488V52.0501H735.398V15.5751ZM738.544 9.65124C736.201 9.65124 734.394 7.85411 734.394 5.5245C734.394 3.19489 736.201 1.39777 738.544 1.39777C740.752 1.39777 742.559 3.19489 742.559 5.5245C742.559 7.85411 740.752 9.65124 738.544 9.65124Z" fill="black"/>
<path d="M767.461 20.1012C761.504 20.1012 756.552 24.0283 755.883 31.1502H779.038C779.105 24.0283 773.751 20.1012 767.461 20.1012ZM784.593 40.8014C782.719 47.4575 776.83 52.6492 767.728 52.6492C757.288 52.6492 749.592 45.3275 749.592 33.746C749.592 22.2311 757.021 14.9761 767.728 14.9761C778.369 14.9761 785.329 22.4308 785.329 32.4148C785.329 33.7461 785.262 34.811 785.128 36.0757H755.816C756.284 43.4638 761.505 47.524 767.728 47.524C773.216 47.524 776.696 44.7285 778.034 40.8014H784.593Z" fill="black"/>
<path d="M820.204 31.4164C820.204 23.9617 816.121 20.1678 809.964 20.1678C803.741 20.1678 799.458 24.0283 799.458 31.8824V52.0501H793.368V15.5751H799.458V20.7668C801.867 16.9729 806.284 14.9095 811.236 14.9095C819.735 14.9095 826.227 20.1012 826.227 30.5512V52.0501H820.204V31.4164Z" fill="black"/>
<path d="M833.899 33.6795C833.899 22.2977 841.462 14.9761 851.366 14.9761C857.122 14.9761 862.408 17.9047 864.951 22.098V2.79553H871.108V52.0501H864.951V45.1944C862.743 49.2546 857.991 52.6492 851.299 52.6492C841.462 52.6492 833.899 44.9947 833.899 33.6795ZM864.951 33.746C864.951 25.2929 859.196 20.2343 852.504 20.2343C845.812 20.2343 840.123 25.0932 840.123 33.6795C840.123 42.2658 845.812 47.3243 852.504 47.3243C859.196 47.3243 864.951 42.3323 864.951 33.746Z" fill="black"/>
<path d="M879.125 33.6795C879.125 22.2977 886.687 14.9761 896.524 14.9761C903.351 14.9761 908.035 18.4372 910.177 22.2311V15.5751H916.334V52.0501H910.177V45.261C907.968 49.188 903.217 52.6492 896.458 52.6492C886.687 52.6492 879.125 44.9947 879.125 33.6795ZM910.177 33.746C910.177 25.2929 904.421 20.2343 897.729 20.2343C891.037 20.2343 885.348 25.0932 885.348 33.6795C885.348 42.2658 891.037 47.3243 897.729 47.3243C904.421 47.3243 910.177 42.3323 910.177 33.746Z" fill="black"/>
<path d="M926.224 43.6635H930.306V61.5682H926.224V43.6635Z" fill="black"/>
</svg>
