<svg width="26" height="21" viewBox="0 0 26 21" fill="none" xmlns="http://www.w3.org/2000/svg">
<path fill-rule="evenodd" clip-rule="evenodd" d="M19.2946 12.4034C19.9365 13.0729 20.9101 13.5 22 13.5C23.933 13.5 25.5 12.1568 25.5 10.5C25.5 8.84312 23.933 7.49997 22 7.49997C20.91 7.49997 19.9365 7.92702 19.2946 8.59655C18.51 8.93918 18.3553 8.6702 18.1722 8.2921C17.7396 6.87133 16.9001 5.61241 15.78 4.63422L17.7929 2.62129C18.1834 2.23077 18.1834 1.5976 17.7929 1.20708C17.4024 0.816553 16.7692 0.816553 16.3787 1.20708L14.0969 3.48886C12.8819 2.85859 11.4854 2.49997 10 2.49997C7.99816 2.49997 6.15794 3.15128 4.70553 4.24103L2.67155 2.20705C2.28103 1.81652 1.64786 1.81652 1.25734 2.20705C0.866814 2.59757 0.866814 3.23074 1.25734 3.62126L3.26045 5.62438C2.36021 6.72504 1.75755 8.05246 1.56576 9.49997L1.5 9.49997C0.947715 9.49997 0.5 9.94769 0.5 10.5C0.5 11.0523 0.947715 11.5 1.5 11.5L1.56576 11.5C1.75754 12.9475 2.36021 14.2749 3.26045 15.3756L1.25734 17.3787C0.866813 17.7692 0.866813 18.4024 1.25734 18.7929C1.64786 19.1834 2.28103 19.1834 2.67155 18.7929L4.70553 16.7589C6.15794 17.8487 7.99816 18.5 10 18.5C11.4854 18.5 12.8819 18.1413 14.0969 17.5111L16.3787 19.7929C16.7692 20.1834 17.4024 20.1834 17.7929 19.7929C18.1834 19.4023 18.1834 18.7692 17.7929 18.3786L15.78 16.3657C16.9001 15.3875 17.7396 14.1286 18.1722 12.7078C18.3553 12.3297 18.51 12.0608 19.2946 12.4034Z" fill="#D9D9D9"/>
</svg>
